<?xml version="1.0" encoding="UTF-8"?>
<svg width="1361px" height="489px" viewBox="0 0 1361 489" version="1.1" xmlns="http://www.w3.org/2000/svg" xmlns:xlink="http://www.w3.org/1999/xlink">
    <!-- Generator: Sketch 51.3 (57544) - http://www.bohemiancoding.com/sketch -->
    <title>Group 5</title>
    <desc>Created with Sketch.</desc>
    <defs></defs>
    <g id="Page-1" stroke="none" stroke-width="1" fill="none" fill-rule="evenodd">
        <g id="Group-5">
            <g id="Group-2-Copy" transform="translate(286.000000, 0.000000)">
                <path d="M770.924177,145.593985 C758.862766,153.864662 740.160517,158 714.846399,158 L689,158 L689,58 L713.278524,58 C739.124923,58 758.203751,61.7132927 770.547597,69.139878 C782.862476,76.5664633 789,89.0540502 789,106.606185 C789,124.325011 782.985589,137.323308 770.924177,145.593985" id="Fill-33" fill="#EC1751"></path>
                <path d="M491.075823,292.406455 C497.434225,288.047526 505.61397,284.841284 515.636782,282.784182 C518.269218,282.248626 520.9958,281.784004 523.874461,281.404504 C530.895499,280.468168 538.662454,280 547.153601,280 L573,280 L573,380 L548.721476,380 C522.875077,380 503.796249,376.286576 491.448782,368.859727 C479.137524,361.432878 473,348.944848 473,331.392091 C473,313.672637 479.014411,300.677425 491.075823,292.406455" id="Fill-34" fill="#FFF024"></path>
                <polygon id="Fill-35" fill="#161D2D" points="658.588012 380 755 380 603.217805 58 507 58"></polygon>
                <polygon id="Path-2" fill="#161D2D" fill-rule="nonzero" points="0 371.664921 153 52 174 52 356 436 292 371.664921 240 371.664921 217 324.418848 108 324.418848 86 371.664921"></polygon>
                <polygon id="Path-3" fill="#EC1751" fill-rule="nonzero" points="167 0 269 215 269 52.490566 218 52.490566"></polygon>
                <path d="M397.631469,58 L473.327031,58 L473.327031,235.1 C480.073813,316.275 437.631469,364.241667 346,379 L306,294 C324.92389,303.05625 394.643487,304.53125 397.631469,251.2 C399.623458,215.645833 399.623458,151.245833 397.631469,58 Z" id="Path-5" fill="#EC1751" fill-rule="nonzero"></path>
            </g>
            <path d="M38.0175925,487.747221 L31.3489295,487.747221 C30.602307,487.747221 29.9872011,487.573294 29.5035934,487.225436 C29.0199856,486.877578 28.6848589,486.432156 28.4982033,485.889158 L26.3092529,479.424119 L12.2083396,479.424119 L10.0193891,485.889158 C9.8497022,486.364282 9.51881765,486.792735 9.02672556,487.17453 C8.53463346,487.556326 7.9322539,487.747221 7.2195688,487.747221 L0.5,487.747221 L14.8554424,450.662328 L23.66215,450.662328 L38.0175925,487.747221 Z M14.1936667,473.569949 L24.3239257,473.569949 L20.9132355,463.414237 C20.6926425,462.769426 20.4338738,462.010089 20.1369217,461.136201 C19.8399696,460.262313 19.547264,459.316323 19.2587962,458.298201 C18.9872971,459.333292 18.7073179,460.292008 18.4188501,461.174381 C18.1303823,462.056753 17.8588873,462.820332 17.6043569,463.465143 L14.1936667,473.569949 Z M108.607002,469.192048 C108.607002,471.873101 108.144612,474.346251 107.219818,476.611572 C106.295025,478.876892 104.992697,480.836747 103.312796,482.491194 C101.632896,484.145642 99.6094095,485.435243 97.2422768,486.360037 C94.8751441,487.284831 92.2492783,487.747221 89.3646005,487.747221 L74.9582522,487.747221 L74.9582522,450.662328 L89.3646005,450.662328 C92.2492783,450.662328 94.8751441,451.12896 97.2422768,452.062238 C99.6094095,452.995516 101.632896,454.285117 103.312796,455.931081 C104.992697,457.577044 106.295025,459.532656 107.219818,461.797977 C108.144612,464.063297 108.607002,466.527963 108.607002,469.192048 Z M99.8002945,469.192048 C99.8002945,467.359429 99.5627363,465.705006 99.0876129,464.22873 C98.6124895,462.752454 97.9295099,461.501031 97.0386535,460.474425 C96.1477971,459.44782 95.0575749,458.658787 93.7679543,458.107305 C92.4783336,457.555822 91.0105637,457.280085 89.3646005,457.280085 L83.6122424,457.280085 L83.6122424,481.129464 L89.3646005,481.129464 C91.0105637,481.129464 92.4783336,480.853726 93.7679543,480.302244 C95.0575749,479.750761 96.1477971,478.961729 97.0386535,477.935123 C97.9295099,476.908517 98.6124895,475.657095 99.0876129,474.180819 C99.5627363,472.704542 99.8002945,471.041635 99.8002945,469.192048 Z M142.086066,450.662328 L149.009258,450.662328 C149.75588,450.662328 150.366744,450.832012 150.841868,451.171386 C151.316991,451.51076 151.65636,451.960424 151.859984,452.52039 L159.037705,472.373662 C159.36011,473.239065 159.686753,474.180814 160.017642,475.198935 C160.348532,476.217057 160.658206,477.286068 160.946674,478.406002 C161.184235,477.286068 161.459972,476.217057 161.773893,475.198935 C162.087814,474.180814 162.397488,473.239065 162.702925,472.373662 L169.82974,452.52039 C169.999427,452.045267 170.330311,451.616814 170.822404,451.235018 C171.314496,450.853223 171.916875,450.662328 172.62956,450.662328 L179.603658,450.662328 L164.739158,487.747221 L156.950566,487.747221 L142.086066,450.662328 Z M226.012801,487.747221 L217.358811,487.747221 L217.358811,450.662328 L226.012801,450.662328 L226.012801,487.747221 Z M293.751485,450.662328 L293.751485,457.483708 L283.315791,457.483708 L283.315791,487.747221 L274.712706,487.747221 L274.712706,457.483708 L264.277013,457.483708 L264.277013,450.662328 L293.751485,450.662328 Z M363.628213,487.747221 L354.974223,487.747221 L354.974223,472.068227 L339.906099,472.068227 L339.906099,487.747221 L331.252109,487.747221 L331.252109,450.662328 L339.906099,450.662328 L339.906099,466.163151 L354.974223,466.163151 L354.974223,450.662328 L363.628213,450.662328 L363.628213,487.747221 Z M462.860633,480.951293 C464.014504,480.951293 465.045337,480.760398 465.953162,480.378603 C466.860987,479.996807 467.628809,479.449575 468.25665,478.73689 C468.884492,478.024205 469.36385,477.154572 469.69474,476.127966 C470.025629,475.10136 470.191072,473.93478 470.191072,472.628191 L470.191072,450.662328 L478.794156,450.662328 L478.794156,472.628191 C478.794156,474.901996 478.425092,476.989114 477.686954,478.889607 C476.948816,480.790101 475.892531,482.427555 474.518067,483.802019 C473.143602,485.176484 471.472211,486.245495 469.503843,487.009086 C467.535475,487.772677 465.321093,488.154467 462.860633,488.154467 C460.383204,488.154467 458.160338,487.772677 456.19197,487.009086 C454.223601,486.245495 452.55221,485.176484 451.177746,483.802019 C449.803282,482.427555 448.751239,480.790101 448.021585,478.889607 C447.291931,476.989114 446.92711,474.901996 446.92711,472.628191 L446.92711,450.662328 L455.530194,450.662328 L455.530194,472.602738 C455.530194,473.909327 455.695636,475.075908 456.026526,476.102513 C456.357415,477.129119 456.836774,478.002994 457.464615,478.724163 C458.092457,479.445333 458.860279,479.996807 459.768104,480.378603 C460.675929,480.760398 461.706762,480.951293 462.860633,480.951293 Z M538.998777,458.19639 C538.744247,458.603638 538.476994,458.90907 538.197011,459.112695 C537.917027,459.316319 537.556448,459.41813 537.115262,459.41813 C536.724982,459.41813 536.305013,459.295108 535.855343,459.049062 C535.405672,458.803016 534.896619,458.527279 534.328168,458.221843 C533.759717,457.916406 533.110674,457.640669 532.38102,457.394623 C531.651366,457.148577 530.819913,457.025556 529.886635,457.025556 C528.274609,457.025556 527.074092,457.369167 526.285048,458.056399 C525.496003,458.743631 525.101487,459.672653 525.101487,460.843493 C525.101487,461.590115 525.339045,462.209463 525.814169,462.701555 C526.289292,463.193647 526.912882,463.617858 527.684958,463.974201 C528.457033,464.330543 529.339392,464.657186 530.332061,464.954138 C531.324729,465.25109 532.338593,465.581975 533.373684,465.946802 C534.408774,466.311628 535.422638,466.740082 536.415307,467.232174 C537.407975,467.724266 538.290334,468.352098 539.06241,469.115689 C539.834485,469.87928 540.458075,470.808302 540.933199,471.902783 C541.408322,472.997264 541.64588,474.31656 541.64588,475.860711 C541.64588,477.574549 541.348932,479.178066 540.755028,480.671311 C540.161124,482.164556 539.299976,483.466884 538.171558,484.578333 C537.04314,485.689783 535.651728,486.563657 533.99728,487.199983 C532.342832,487.836309 530.463578,488.154467 528.35946,488.154467 C527.205589,488.154467 526.030525,488.035688 524.834232,487.798127 C523.637939,487.560565 522.479843,487.225438 521.359909,486.792737 C520.239975,486.360035 519.187932,485.84674 518.203748,485.252835 C517.219564,484.658931 516.362658,483.997162 515.633004,483.267508 L518.178295,479.245948 C518.364951,478.940512 518.627962,478.694469 518.967335,478.507814 C519.306709,478.321158 519.671531,478.227832 520.061811,478.227832 C520.570871,478.227832 521.084167,478.389032 521.601712,478.711437 C522.119257,479.033842 522.704668,479.390179 523.357963,479.780459 C524.011257,480.170739 524.762111,480.527076 525.610545,480.849482 C526.45898,481.171887 527.460118,481.333087 528.613989,481.333087 C530.175109,481.333087 531.388352,480.989476 532.253756,480.302244 C533.119159,479.615012 533.551854,478.52479 533.551854,477.031545 C533.551854,476.166141 533.314296,475.461951 532.839173,474.918953 C532.364049,474.375955 531.740459,473.926291 530.968383,473.569949 C530.196308,473.213606 529.318191,472.89969 528.334007,472.628191 C527.349823,472.356692 526.340201,472.055502 525.305111,471.724613 C524.27002,471.393723 523.260398,470.986481 522.276214,470.502873 C521.29203,470.019265 520.413913,469.382949 519.641838,468.593904 C518.869762,467.80486 518.246172,466.820691 517.771049,465.641367 C517.295925,464.462042 517.058367,463.006999 517.058367,461.276192 C517.058367,459.884759 517.338346,458.527284 517.898313,457.203726 C518.45828,455.880168 519.281249,454.700862 520.367246,453.665771 C521.453242,452.630681 522.785264,451.80347 524.363353,451.184113 C525.941441,450.564755 527.74858,450.255081 529.784823,450.255081 C530.921726,450.255081 532.028916,450.344166 533.106428,450.522337 C534.18394,450.700508 535.206289,450.963519 536.173504,451.311377 C537.14072,451.659235 538.044289,452.074962 538.884239,452.55857 C539.724189,453.042178 540.475043,453.58941 541.136822,454.200283 L538.998777,458.19639 Z M603.734017,450.662328 L603.734017,457.280085 L588.513176,457.280085 L588.513176,465.934075 L600.170609,465.934075 L600.170609,472.297303 L588.513176,472.297303 L588.513176,481.129464 L603.734017,481.129464 L603.734017,487.747221 L579.859186,487.747221 L579.859186,450.662328 L603.734017,450.662328 Z M651.161277,474.028101 L651.161277,487.747221 L642.558192,487.747221 L642.558192,450.662328 L654.622873,450.662328 C657.303926,450.662328 659.590423,450.938065 661.482432,451.489547 C663.374442,452.04103 664.91857,452.808852 666.114863,453.793036 C667.311155,454.77722 668.180788,455.939558 668.723786,457.280085 C669.266784,458.620612 669.538279,460.079897 669.538279,461.657986 C669.538279,462.862763 669.377079,463.999648 669.054674,465.068676 C668.732269,466.137704 668.25291,467.126115 667.616584,468.03394 C666.980258,468.941765 666.19971,469.752008 665.274916,470.464693 C664.350123,471.177379 663.285353,471.76279 662.080576,472.220944 C662.657511,472.509412 663.196259,472.865749 663.696836,473.289967 C664.197412,473.714184 664.63435,474.231721 665.007661,474.842594 L672.898064,487.747221 L665.109472,487.747221 C663.667134,487.747221 662.632059,487.204231 662.004217,486.118234 L655.844612,475.351653 C655.573113,474.876529 655.254955,474.53716 654.890128,474.333536 C654.525301,474.129912 654.012006,474.028101 653.350227,474.028101 L651.161277,474.028101 Z M651.161277,468.097573 L654.622873,468.097573 C655.793712,468.097573 656.790608,467.949099 657.61359,467.652147 C658.436571,467.355195 659.111067,466.94371 659.637096,466.41768 C660.163126,465.891651 660.544916,465.276545 660.782477,464.572344 C661.020039,463.868144 661.138818,463.108806 661.138818,462.294309 C661.138818,460.665314 660.608554,459.392681 659.548011,458.476372 C658.487468,457.560062 656.845771,457.101915 654.622873,457.101915 L651.161277,457.101915 L651.161277,468.097573 Z M777.984653,450.662328 L777.984653,457.280085 L762.763812,457.280085 L762.763812,465.934075 L774.421246,465.934075 L774.421246,472.297303 L762.763812,472.297303 L762.763812,481.129464 L777.984653,481.129464 L777.984653,487.747221 L754.109822,487.747221 L754.109822,450.662328 L777.984653,450.662328 Z M825.946424,468.68299 L814.467161,450.662328 L823.070245,450.662328 C823.630212,450.662328 824.041697,450.734444 824.304711,450.878678 C824.567726,451.022911 824.801042,451.264712 825.004666,451.604086 L832.386011,464.101465 C832.470854,463.880872 832.568423,463.668767 832.678719,463.465143 C832.789016,463.261518 832.912037,463.049413 833.047787,462.82882 L839.512826,451.73135 C839.937044,451.018665 840.51397,450.662328 841.243624,450.662328 L849.490368,450.662328 L837.858387,468.301196 L849.744897,487.747221 L841.141813,487.747221 C840.581846,487.747221 840.12794,487.611473 839.780082,487.339974 C839.432224,487.068475 839.156487,486.746075 838.952862,486.372764 L831.520612,473.391778 C831.384862,473.76509 831.232146,474.08749 831.062459,474.358989 L824.139267,486.372764 C823.935643,486.729106 823.664148,487.047264 823.324774,487.327248 C822.9854,487.607231 822.561189,487.747221 822.052129,487.747221 L814.009008,487.747221 L825.946424,468.68299 Z M895.594076,475.351653 L895.594076,487.747221 L886.990992,487.747221 L886.990992,450.662328 L900.073788,450.662328 C902.686967,450.662328 904.931043,450.972002 906.806084,451.591359 C908.681124,452.210716 910.225252,453.06338 911.438514,454.149377 C912.651775,455.235373 913.54686,456.51649 914.123796,457.992767 C914.700732,459.469043 914.989195,461.064076 914.989195,462.777914 C914.989195,464.627502 914.692247,466.324345 914.098343,467.868496 C913.504439,469.412647 912.596627,470.736186 911.374881,471.839151 C910.153136,472.942116 908.604766,473.803264 906.729725,474.422621 C904.854684,475.041979 902.636061,475.351653 900.073788,475.351653 L895.594076,475.351653 Z M895.594076,468.86116 L900.073788,468.86116 C902.313656,468.86116 903.925658,468.326654 904.909842,467.257627 C905.894026,466.188599 906.386111,464.695376 906.386111,462.777914 C906.386111,461.929479 906.258847,461.157415 906.004317,460.461699 C905.749787,459.765983 905.363755,459.167845 904.84621,458.667269 C904.328664,458.166692 903.67538,457.78066 902.886335,457.509161 C902.097291,457.237662 901.159785,457.101915 900.073788,457.101915 L895.594076,457.101915 L895.594076,468.86116 Z M977.280955,450.662328 L977.280955,457.280085 L962.060114,457.280085 L962.060114,465.934075 L973.717548,465.934075 L973.717548,472.297303 L962.060114,472.297303 L962.060114,481.129464 L977.280955,481.129464 L977.280955,487.747221 L953.406124,487.747221 L953.406124,450.662328 L977.280955,450.662328 Z M1024.70821,474.028101 L1024.70821,487.747221 L1016.10513,487.747221 L1016.10513,450.662328 L1028.16981,450.662328 C1030.85086,450.662328 1033.13736,450.938065 1035.02937,451.489547 C1036.92138,452.04103 1038.46551,452.808852 1039.6618,453.793036 C1040.85809,454.77722 1041.72773,455.939558 1042.27072,457.280085 C1042.81372,458.620612 1043.08522,460.079897 1043.08522,461.657986 C1043.08522,462.862763 1042.92402,463.999648 1042.60161,465.068676 C1042.27921,466.137704 1041.79985,467.126115 1041.16352,468.03394 C1040.5272,468.941765 1039.74665,469.752008 1038.82185,470.464693 C1037.89706,471.177379 1036.83229,471.76279 1035.62751,472.220944 C1036.20445,472.509412 1036.7432,472.865749 1037.24377,473.289967 C1037.74435,473.714184 1038.18129,474.231721 1038.5546,474.842594 L1046.445,487.747221 L1038.65641,487.747221 C1037.21407,487.747221 1036.179,487.204231 1035.55116,486.118234 L1029.39155,475.351653 C1029.12005,474.876529 1028.80189,474.53716 1028.43707,474.333536 C1028.07224,474.129912 1027.55894,474.028101 1026.89717,474.028101 L1024.70821,474.028101 Z M1024.70821,468.097573 L1028.16981,468.097573 C1029.34065,468.097573 1030.33755,467.949099 1031.16053,467.652147 C1031.98351,467.355195 1032.65801,466.94371 1033.18403,466.41768 C1033.71006,465.891651 1034.09185,465.276545 1034.32942,464.572344 C1034.56698,463.868144 1034.68576,463.108806 1034.68576,462.294309 C1034.68576,460.665314 1034.15549,459.392681 1033.09495,458.476372 C1032.03441,457.560062 1030.39271,457.101915 1028.16981,457.101915 L1024.70821,457.101915 L1024.70821,468.097573 Z M1093.3123,487.747221 L1084.65831,487.747221 L1084.65831,450.662328 L1093.3123,450.662328 L1093.3123,487.747221 Z M1157.99663,450.662328 L1157.99663,457.280085 L1142.77579,457.280085 L1142.77579,465.934075 L1154.43322,465.934075 L1154.43322,472.297303 L1142.77579,472.297303 L1142.77579,481.129464 L1157.99663,481.129464 L1157.99663,487.747221 L1134.1218,487.747221 L1134.1218,450.662328 L1157.99663,450.662328 Z M1201.35142,450.662328 C1201.72474,450.662328 1202.03865,450.679296 1202.29318,450.713234 C1202.54771,450.747171 1202.77679,450.810803 1202.98041,450.90413 C1203.18404,450.997458 1203.37917,451.128964 1203.56583,451.298651 C1203.75248,451.468338 1203.96459,451.697411 1204.20215,451.985879 L1221.81557,474.257177 C1221.74769,473.544492 1221.69679,472.853028 1221.66285,472.182765 C1221.62891,471.512502 1221.61194,470.880427 1221.61194,470.286523 L1221.61194,450.662328 L1229.19691,450.662328 L1229.19691,487.747221 L1224.7172,487.747221 C1224.05542,487.747221 1223.49546,487.64541 1223.03731,487.441786 C1222.57915,487.238162 1222.13797,486.864856 1221.71375,486.321858 L1204.2276,464.22873 C1204.27851,464.87354 1204.32093,465.505615 1204.35487,466.124972 C1204.38881,466.744329 1204.40577,467.325498 1204.40577,467.868496 L1204.40577,487.747221 L1196.82081,487.747221 L1196.82081,450.662328 L1201.35142,450.662328 Z M1294.16123,478.151473 C1294.36485,478.151473 1294.56847,478.189652 1294.7721,478.266011 C1294.97572,478.34237 1295.17086,478.473876 1295.35751,478.660531 L1298.7682,482.249392 C1297.27496,484.200791 1295.40419,485.672803 1293.15584,486.665472 C1290.90748,487.658141 1288.24768,488.154467 1285.17635,488.154467 C1282.35955,488.154467 1279.83549,487.675109 1277.60411,486.716378 C1275.37272,485.757647 1273.48074,484.434108 1271.92811,482.745724 C1270.37547,481.057339 1269.18344,479.055063 1268.35197,476.738836 C1267.52051,474.42261 1267.10478,471.907039 1267.10478,469.192048 C1267.10478,466.426151 1267.5799,463.885127 1268.53014,461.568901 C1269.48039,459.252674 1270.80817,457.25464 1272.51352,455.57474 C1274.21888,453.894839 1276.25933,452.58827 1278.63495,451.654991 C1281.01057,450.721713 1283.63219,450.255081 1286.4999,450.255081 C1287.89133,450.255081 1289.20214,450.378102 1290.43238,450.624148 C1291.66261,450.870194 1292.81222,451.209563 1293.88124,451.642265 C1294.95027,452.074967 1295.93444,452.592504 1296.83378,453.194893 C1297.73312,453.797281 1298.53064,454.463292 1299.22636,455.192946 L1296.32472,459.087242 C1296.13807,459.324803 1295.91748,459.541151 1295.66295,459.736291 C1295.40842,459.931431 1295.05208,460.028999 1294.59393,460.028999 C1294.28849,460.028999 1294.00003,459.961126 1293.72853,459.825376 C1293.45703,459.689627 1293.16856,459.524184 1292.86313,459.329044 C1292.55769,459.133904 1292.22257,458.921799 1291.85774,458.692722 C1291.49291,458.463644 1291.06022,458.251539 1290.55964,458.056399 C1290.05906,457.861259 1289.47365,457.695817 1288.80339,457.560067 C1288.13313,457.424317 1287.34834,457.356444 1286.44899,457.356444 C1284.88787,457.356444 1283.46253,457.632181 1282.17291,458.183663 C1280.88328,458.735146 1279.77609,459.524178 1278.8513,460.550784 C1277.92651,461.57739 1277.20535,462.820328 1276.6878,464.279636 C1276.17026,465.738943 1275.91149,467.376398 1275.91149,469.192048 C1275.91149,471.092541 1276.17026,472.780901 1276.6878,474.257177 C1277.20535,475.733454 1277.90954,476.976392 1278.80039,477.986029 C1279.69125,478.995666 1280.73057,479.763488 1281.91838,480.289518 C1283.10618,480.815547 1284.37882,481.078558 1285.73631,481.078558 C1286.51687,481.078558 1287.22955,481.040379 1287.87436,480.96402 C1288.51917,480.887661 1289.11731,480.756155 1289.66879,480.5695 C1290.22027,480.382844 1290.74629,480.141044 1291.24687,479.844092 C1291.74744,479.547139 1292.25226,479.178076 1292.76132,478.73689 C1292.96494,478.567203 1293.18553,478.427213 1293.42309,478.316917 C1293.66065,478.20662 1293.9067,478.151473 1294.16123,478.151473 Z M1360.5,450.662328 L1360.5,457.280085 L1345.27916,457.280085 L1345.27916,465.934075 L1356.93659,465.934075 L1356.93659,472.297303 L1345.27916,472.297303 L1345.27916,481.129464 L1360.5,481.129464 L1360.5,487.747221 L1336.62517,487.747221 L1336.62517,450.662328 L1360.5,450.662328 Z" id="ADVITH-USER-EXPERIEN-Copy" fill="#161D2D"></path>
        </g>
    </g>
</svg>